<mxfile host="Electron" modified="2024-07-17T22:01:02.451Z" agent="Mozilla/5.0 (Windows NT 10.0; Win64; x64) AppleWebKit/537.36 (KHTML, like Gecko) draw.io/24.6.4 Chrome/124.0.6367.207 Electron/30.0.6 Safari/537.36" etag="fpkEm_XPdIlyES4HOFof" version="24.6.4" type="device">
  <diagram name="PÃ¡gina-1" id="xgbjmksw7M_9rLhdnWey">
    <mxGraphModel dx="1875" dy="606" grid="1" gridSize="10" guides="1" tooltips="1" connect="1" arrows="1" fold="1" page="1" pageScale="1" pageWidth="827" pageHeight="1169" math="0" shadow="0">
      <root>
        <mxCell id="0" />
        <mxCell id="1" parent="0" />
        <mxCell id="AU8xrQN0Su85tY3r4lTS-4" value="&lt;div style=&quot;font-size: 14px;&quot;&gt;Gestor de cliente&lt;/div&gt;" style="shape=module;align=left;spacingLeft=20;align=center;verticalAlign=top;whiteSpace=wrap;html=1;fillColor=#dae8fc;strokeColor=#6c8ebf;fontSize=14;fontColor=#000000;" parent="1" vertex="1">
          <mxGeometry x="40" y="320" width="100" height="50" as="geometry" />
        </mxCell>
        <mxCell id="AU8xrQN0Su85tY3r4lTS-10" value="&lt;div style=&quot;font-size: 14px;&quot;&gt;Gesto&lt;/div&gt;&lt;div style=&quot;font-size: 14px;&quot;&gt;&lt;span style=&quot;background-color: initial;&quot;&gt;&amp;nbsp;ordenes&lt;/span&gt;&lt;/div&gt;&lt;div style=&quot;font-size: 14px;&quot;&gt;&lt;br style=&quot;font-size: 14px;&quot;&gt;&lt;/div&gt;" style="shape=module;align=left;spacingLeft=20;align=center;verticalAlign=top;whiteSpace=wrap;html=1;fillColor=#dae8fc;strokeColor=#6c8ebf;fontSize=14;fontColor=#000000;" parent="1" vertex="1">
          <mxGeometry x="280" y="220" width="110" height="50" as="geometry" />
        </mxCell>
        <mxCell id="AU8xrQN0Su85tY3r4lTS-3" value="Gestor&lt;div&gt;&amp;nbsp;producto&lt;div style=&quot;font-size: 14px;&quot;&gt;&lt;br style=&quot;font-size: 14px;&quot;&gt;&lt;/div&gt;&lt;/div&gt;" style="shape=module;align=left;spacingLeft=20;align=center;verticalAlign=top;whiteSpace=wrap;html=1;fillColor=#dae8fc;strokeColor=#6c8ebf;fontSize=14;fontColor=#000000;" parent="1" vertex="1">
          <mxGeometry x="-10" y="230" width="100" height="50" as="geometry" />
        </mxCell>
        <mxCell id="AU8xrQN0Su85tY3r4lTS-19" value="&lt;div style=&quot;font-size: 14px;&quot;&gt;Gestor categorias&lt;/div&gt;&lt;div style=&quot;font-size: 14px;&quot;&gt;&lt;br style=&quot;font-size: 14px;&quot;&gt;&lt;/div&gt;" style="shape=module;align=left;spacingLeft=20;align=center;verticalAlign=top;whiteSpace=wrap;html=1;fillColor=#dae8fc;strokeColor=#6c8ebf;fontSize=14;fontColor=#000000;" parent="1" vertex="1">
          <mxGeometry x="120" y="230" width="100" height="50" as="geometry" />
        </mxCell>
        <mxCell id="o9NAU-YGMhf1R5BNUE6P-65" value="" style="edgeStyle=orthogonalEdgeStyle;rounded=0;orthogonalLoop=1;jettySize=auto;html=1;" edge="1" parent="1" source="o9NAU-YGMhf1R5BNUE6P-20" target="AU8xrQN0Su85tY3r4lTS-10">
          <mxGeometry relative="1" as="geometry" />
        </mxCell>
        <mxCell id="o9NAU-YGMhf1R5BNUE6P-66" value="" style="edgeStyle=orthogonalEdgeStyle;rounded=0;orthogonalLoop=1;jettySize=auto;html=1;" edge="1" parent="1" source="o9NAU-YGMhf1R5BNUE6P-20" target="o9NAU-YGMhf1R5BNUE6P-32">
          <mxGeometry relative="1" as="geometry" />
        </mxCell>
        <mxCell id="o9NAU-YGMhf1R5BNUE6P-20" value="" style="shape=providedRequiredInterface;html=1;verticalLabelPosition=bottom;sketch=0;fillColor=#dae8fc;strokeColor=#6c8ebf;fontSize=14;fontColor=#000000;" vertex="1" parent="1">
          <mxGeometry x="240" y="140" width="20" height="20" as="geometry" />
        </mxCell>
        <mxCell id="o9NAU-YGMhf1R5BNUE6P-21" value="&lt;div style=&quot;font-size: 14px;&quot;&gt;middleware&lt;/div&gt;" style="shape=module;align=left;spacingLeft=20;align=center;verticalAlign=top;whiteSpace=wrap;html=1;fillColor=#dae8fc;strokeColor=#6c8ebf;fontSize=14;fontColor=#000000;" vertex="1" parent="1">
          <mxGeometry x="360" y="170" width="100" height="50" as="geometry" />
        </mxCell>
        <mxCell id="o9NAU-YGMhf1R5BNUE6P-23" value="&lt;div style=&quot;font-size: 14px;&quot;&gt;generacion de tokens&lt;/div&gt;" style="shape=module;align=left;spacingLeft=20;align=center;verticalAlign=top;whiteSpace=wrap;html=1;fillColor=#dae8fc;strokeColor=#6c8ebf;fontSize=14;fontColor=#000000;" vertex="1" parent="1">
          <mxGeometry x="60" y="510" width="120" height="50" as="geometry" />
        </mxCell>
        <mxCell id="o9NAU-YGMhf1R5BNUE6P-25" value="conexion a base de datls&lt;div&gt;&lt;br&gt;&lt;/div&gt;" style="shape=module;align=left;spacingLeft=20;align=center;verticalAlign=top;whiteSpace=wrap;html=1;fillColor=#dae8fc;strokeColor=#6c8ebf;fontSize=14;fontColor=#000000;" vertex="1" parent="1">
          <mxGeometry x="590" y="540" width="130" height="50" as="geometry" />
        </mxCell>
        <mxCell id="o9NAU-YGMhf1R5BNUE6P-29" value="SERVIDOR EXPRESS" style="html=1;dropTarget=0;whiteSpace=wrap;" vertex="1" parent="1">
          <mxGeometry x="300" y="20" width="180" height="90" as="geometry" />
        </mxCell>
        <mxCell id="o9NAU-YGMhf1R5BNUE6P-30" value="" style="shape=module;jettyWidth=8;jettyHeight=4;" vertex="1" parent="o9NAU-YGMhf1R5BNUE6P-29">
          <mxGeometry x="1" width="20" height="20" relative="1" as="geometry">
            <mxPoint x="-27" y="7" as="offset" />
          </mxGeometry>
        </mxCell>
        <mxCell id="o9NAU-YGMhf1R5BNUE6P-31" value="API REST FULL" style="html=1;dropTarget=0;whiteSpace=wrap;" vertex="1" parent="1">
          <mxGeometry x="40" y="20" width="180" height="90" as="geometry" />
        </mxCell>
        <mxCell id="o9NAU-YGMhf1R5BNUE6P-32" value="" style="shape=module;jettyWidth=8;jettyHeight=4;" vertex="1" parent="o9NAU-YGMhf1R5BNUE6P-31">
          <mxGeometry x="1" width="20" height="20" relative="1" as="geometry">
            <mxPoint x="-27" y="7" as="offset" />
          </mxGeometry>
        </mxCell>
        <mxCell id="o9NAU-YGMhf1R5BNUE6P-33" value="CONTROLADORES" style="html=1;dropTarget=0;whiteSpace=wrap;" vertex="1" parent="1">
          <mxGeometry x="620" y="10" width="180" height="90" as="geometry" />
        </mxCell>
        <mxCell id="o9NAU-YGMhf1R5BNUE6P-34" value="" style="shape=module;jettyWidth=8;jettyHeight=4;" vertex="1" parent="o9NAU-YGMhf1R5BNUE6P-33">
          <mxGeometry x="1" width="20" height="20" relative="1" as="geometry">
            <mxPoint x="-27" y="7" as="offset" />
          </mxGeometry>
        </mxCell>
        <mxCell id="o9NAU-YGMhf1R5BNUE6P-37" value="" style="edgeStyle=entityRelationEdgeStyle;fontSize=12;html=1;endArrow=blockThin;endFill=1;startArrow=none;rounded=0;startFill=0;dashed=1;entryX=0;entryY=0.75;entryDx=0;entryDy=0;" edge="1" parent="1" target="o9NAU-YGMhf1R5BNUE6P-29">
          <mxGeometry width="60" height="60" relative="1" as="geometry">
            <mxPoint x="220" y="80" as="sourcePoint" />
            <mxPoint x="20.00000000000003" y="149.82000000000005" as="targetPoint" />
            <Array as="points">
              <mxPoint x="30" y="160" />
            </Array>
          </mxGeometry>
        </mxCell>
        <mxCell id="o9NAU-YGMhf1R5BNUE6P-38" value="" style="edgeStyle=entityRelationEdgeStyle;fontSize=12;html=1;endArrow=blockThin;endFill=1;startArrow=none;rounded=0;startFill=0;dashed=1;" edge="1" parent="1" source="o9NAU-YGMhf1R5BNUE6P-29" target="o9NAU-YGMhf1R5BNUE6P-33">
          <mxGeometry width="60" height="60" relative="1" as="geometry">
            <mxPoint x="193.52" y="282.61" as="sourcePoint" />
            <mxPoint x="140" y="400" as="targetPoint" />
          </mxGeometry>
        </mxCell>
        <mxCell id="o9NAU-YGMhf1R5BNUE6P-63" value="" style="edgeStyle=orthogonalEdgeStyle;rounded=0;orthogonalLoop=1;jettySize=auto;html=1;" edge="1" parent="1" source="o9NAU-YGMhf1R5BNUE6P-40" target="o9NAU-YGMhf1R5BNUE6P-62">
          <mxGeometry relative="1" as="geometry" />
        </mxCell>
        <mxCell id="o9NAU-YGMhf1R5BNUE6P-64" value="" style="edgeStyle=orthogonalEdgeStyle;rounded=0;orthogonalLoop=1;jettySize=auto;html=1;" edge="1" parent="1" source="o9NAU-YGMhf1R5BNUE6P-40" target="o9NAU-YGMhf1R5BNUE6P-60">
          <mxGeometry relative="1" as="geometry" />
        </mxCell>
        <mxCell id="o9NAU-YGMhf1R5BNUE6P-40" value="GESTORES DEL NEGOCIO" style="html=1;dropTarget=0;whiteSpace=wrap;" vertex="1" parent="1">
          <mxGeometry x="660" y="240" width="180" height="90" as="geometry" />
        </mxCell>
        <mxCell id="o9NAU-YGMhf1R5BNUE6P-41" value="" style="shape=module;jettyWidth=8;jettyHeight=4;" vertex="1" parent="o9NAU-YGMhf1R5BNUE6P-40">
          <mxGeometry x="1" width="20" height="20" relative="1" as="geometry">
            <mxPoint x="-27" y="7" as="offset" />
          </mxGeometry>
        </mxCell>
        <mxCell id="o9NAU-YGMhf1R5BNUE6P-42" value="" style="edgeStyle=entityRelationEdgeStyle;fontSize=12;html=1;endArrow=blockThin;endFill=1;startArrow=none;rounded=0;startFill=0;dashed=1;exitX=0.5;exitY=1;exitDx=0;exitDy=0;entryX=0.5;entryY=0;entryDx=0;entryDy=0;" edge="1" parent="1" source="o9NAU-YGMhf1R5BNUE6P-33" target="o9NAU-YGMhf1R5BNUE6P-40">
          <mxGeometry width="60" height="60" relative="1" as="geometry">
            <mxPoint x="420" y="310" as="sourcePoint" />
            <mxPoint x="480" y="250" as="targetPoint" />
            <Array as="points">
              <mxPoint x="500" y="190" />
            </Array>
          </mxGeometry>
        </mxCell>
        <mxCell id="o9NAU-YGMhf1R5BNUE6P-51" value="" style="edgeStyle=orthogonalEdgeStyle;rounded=0;orthogonalLoop=1;jettySize=auto;html=1;" edge="1" parent="1" source="o9NAU-YGMhf1R5BNUE6P-45" target="o9NAU-YGMhf1R5BNUE6P-31">
          <mxGeometry relative="1" as="geometry" />
        </mxCell>
        <mxCell id="o9NAU-YGMhf1R5BNUE6P-52" value="" style="edgeStyle=orthogonalEdgeStyle;rounded=0;orthogonalLoop=1;jettySize=auto;html=1;" edge="1" parent="1" source="o9NAU-YGMhf1R5BNUE6P-45" target="AU8xrQN0Su85tY3r4lTS-3">
          <mxGeometry relative="1" as="geometry" />
        </mxCell>
        <mxCell id="o9NAU-YGMhf1R5BNUE6P-45" value="" style="shape=providedRequiredInterface;html=1;verticalLabelPosition=bottom;sketch=0;fillColor=#dae8fc;strokeColor=#6c8ebf;fontSize=14;fontColor=#000000;" vertex="1" parent="1">
          <mxGeometry x="60" y="160" width="20" height="20" as="geometry" />
        </mxCell>
        <mxCell id="o9NAU-YGMhf1R5BNUE6P-53" value="" style="edgeStyle=orthogonalEdgeStyle;rounded=0;orthogonalLoop=1;jettySize=auto;html=1;" edge="1" parent="1" source="o9NAU-YGMhf1R5BNUE6P-46" target="o9NAU-YGMhf1R5BNUE6P-32">
          <mxGeometry relative="1" as="geometry" />
        </mxCell>
        <mxCell id="o9NAU-YGMhf1R5BNUE6P-54" value="" style="edgeStyle=orthogonalEdgeStyle;rounded=0;orthogonalLoop=1;jettySize=auto;html=1;" edge="1" parent="1" source="o9NAU-YGMhf1R5BNUE6P-46" target="AU8xrQN0Su85tY3r4lTS-19">
          <mxGeometry relative="1" as="geometry" />
        </mxCell>
        <mxCell id="o9NAU-YGMhf1R5BNUE6P-46" value="" style="shape=providedRequiredInterface;html=1;verticalLabelPosition=bottom;sketch=0;fillColor=#dae8fc;strokeColor=#6c8ebf;fontSize=14;fontColor=#000000;" vertex="1" parent="1">
          <mxGeometry x="160" y="160" width="20" height="20" as="geometry" />
        </mxCell>
        <mxCell id="o9NAU-YGMhf1R5BNUE6P-56" value="" style="edgeStyle=orthogonalEdgeStyle;rounded=0;orthogonalLoop=1;jettySize=auto;html=1;" edge="1" parent="1" source="o9NAU-YGMhf1R5BNUE6P-47" target="AU8xrQN0Su85tY3r4lTS-4">
          <mxGeometry relative="1" as="geometry" />
        </mxCell>
        <mxCell id="o9NAU-YGMhf1R5BNUE6P-58" value="" style="edgeStyle=orthogonalEdgeStyle;rounded=0;orthogonalLoop=1;jettySize=auto;html=1;" edge="1" parent="1" source="o9NAU-YGMhf1R5BNUE6P-47" target="o9NAU-YGMhf1R5BNUE6P-31">
          <mxGeometry relative="1" as="geometry" />
        </mxCell>
        <mxCell id="o9NAU-YGMhf1R5BNUE6P-47" value="" style="shape=providedRequiredInterface;html=1;verticalLabelPosition=bottom;sketch=0;fillColor=#dae8fc;strokeColor=#6c8ebf;fontSize=14;fontColor=#000000;" vertex="1" parent="1">
          <mxGeometry x="100" y="240" width="20" height="20" as="geometry" />
        </mxCell>
        <mxCell id="o9NAU-YGMhf1R5BNUE6P-59" value="MODELO DE DATOS&amp;nbsp;" style="html=1;dropTarget=0;whiteSpace=wrap;" vertex="1" parent="1">
          <mxGeometry x="490" y="125" width="180" height="90" as="geometry" />
        </mxCell>
        <mxCell id="o9NAU-YGMhf1R5BNUE6P-60" value="" style="shape=module;jettyWidth=8;jettyHeight=4;" vertex="1" parent="o9NAU-YGMhf1R5BNUE6P-59">
          <mxGeometry x="1" width="20" height="20" relative="1" as="geometry">
            <mxPoint x="-27" y="7" as="offset" />
          </mxGeometry>
        </mxCell>
        <mxCell id="o9NAU-YGMhf1R5BNUE6P-61" value="BASE DE DATOS&amp;nbsp;" style="html=1;dropTarget=0;whiteSpace=wrap;" vertex="1" parent="1">
          <mxGeometry x="540" y="400" width="180" height="90" as="geometry" />
        </mxCell>
        <mxCell id="o9NAU-YGMhf1R5BNUE6P-62" value="" style="shape=module;jettyWidth=8;jettyHeight=4;" vertex="1" parent="o9NAU-YGMhf1R5BNUE6P-61">
          <mxGeometry x="1" width="20" height="20" relative="1" as="geometry">
            <mxPoint x="-27" y="7" as="offset" />
          </mxGeometry>
        </mxCell>
        <mxCell id="o9NAU-YGMhf1R5BNUE6P-71" value="" style="edgeStyle=orthogonalEdgeStyle;rounded=0;orthogonalLoop=1;jettySize=auto;html=1;" edge="1" parent="1" source="o9NAU-YGMhf1R5BNUE6P-67" target="o9NAU-YGMhf1R5BNUE6P-69">
          <mxGeometry relative="1" as="geometry" />
        </mxCell>
        <mxCell id="o9NAU-YGMhf1R5BNUE6P-83" style="edgeStyle=orthogonalEdgeStyle;rounded=0;orthogonalLoop=1;jettySize=auto;html=1;exitX=0.5;exitY=0;exitDx=0;exitDy=0;" edge="1" parent="1" source="o9NAU-YGMhf1R5BNUE6P-67" target="o9NAU-YGMhf1R5BNUE6P-29">
          <mxGeometry relative="1" as="geometry" />
        </mxCell>
        <mxCell id="o9NAU-YGMhf1R5BNUE6P-67" value="MIDDLEWARE DE AUTENTIFICACION" style="html=1;dropTarget=0;whiteSpace=wrap;" vertex="1" parent="1">
          <mxGeometry x="300" y="320" width="180" height="90" as="geometry" />
        </mxCell>
        <mxCell id="o9NAU-YGMhf1R5BNUE6P-68" value="" style="shape=module;jettyWidth=8;jettyHeight=4;" vertex="1" parent="o9NAU-YGMhf1R5BNUE6P-67">
          <mxGeometry x="1" width="20" height="20" relative="1" as="geometry">
            <mxPoint x="-27" y="7" as="offset" />
          </mxGeometry>
        </mxCell>
        <mxCell id="o9NAU-YGMhf1R5BNUE6P-69" value="JWT" style="html=1;dropTarget=0;whiteSpace=wrap;" vertex="1" parent="1">
          <mxGeometry x="290" y="480" width="180" height="90" as="geometry" />
        </mxCell>
        <mxCell id="o9NAU-YGMhf1R5BNUE6P-70" value="" style="shape=module;jettyWidth=8;jettyHeight=4;" vertex="1" parent="o9NAU-YGMhf1R5BNUE6P-69">
          <mxGeometry x="1" width="20" height="20" relative="1" as="geometry">
            <mxPoint x="-27" y="7" as="offset" />
          </mxGeometry>
        </mxCell>
        <mxCell id="o9NAU-YGMhf1R5BNUE6P-73" value="" style="edgeStyle=orthogonalEdgeStyle;rounded=0;orthogonalLoop=1;jettySize=auto;html=1;" edge="1" parent="1" source="o9NAU-YGMhf1R5BNUE6P-72" target="o9NAU-YGMhf1R5BNUE6P-25">
          <mxGeometry relative="1" as="geometry" />
        </mxCell>
        <mxCell id="o9NAU-YGMhf1R5BNUE6P-74" value="" style="edgeStyle=orthogonalEdgeStyle;rounded=0;orthogonalLoop=1;jettySize=auto;html=1;" edge="1" parent="1" source="o9NAU-YGMhf1R5BNUE6P-72" target="o9NAU-YGMhf1R5BNUE6P-61">
          <mxGeometry relative="1" as="geometry" />
        </mxCell>
        <mxCell id="o9NAU-YGMhf1R5BNUE6P-72" value="" style="shape=providedRequiredInterface;html=1;verticalLabelPosition=bottom;sketch=0;fillColor=#dae8fc;strokeColor=#6c8ebf;fontSize=14;fontColor=#000000;" vertex="1" parent="1">
          <mxGeometry x="640" y="505" width="20" height="20" as="geometry" />
        </mxCell>
        <mxCell id="o9NAU-YGMhf1R5BNUE6P-76" value="" style="edgeStyle=orthogonalEdgeStyle;rounded=0;orthogonalLoop=1;jettySize=auto;html=1;" edge="1" parent="1" source="o9NAU-YGMhf1R5BNUE6P-75" target="o9NAU-YGMhf1R5BNUE6P-23">
          <mxGeometry relative="1" as="geometry" />
        </mxCell>
        <mxCell id="o9NAU-YGMhf1R5BNUE6P-78" value="" style="edgeStyle=orthogonalEdgeStyle;rounded=0;orthogonalLoop=1;jettySize=auto;html=1;" edge="1" parent="1" source="o9NAU-YGMhf1R5BNUE6P-75" target="o9NAU-YGMhf1R5BNUE6P-69">
          <mxGeometry relative="1" as="geometry" />
        </mxCell>
        <mxCell id="o9NAU-YGMhf1R5BNUE6P-75" value="" style="shape=providedRequiredInterface;html=1;verticalLabelPosition=bottom;sketch=0;fillColor=#dae8fc;strokeColor=#6c8ebf;fontSize=14;fontColor=#000000;" vertex="1" parent="1">
          <mxGeometry x="220" y="525" width="20" height="20" as="geometry" />
        </mxCell>
        <mxCell id="o9NAU-YGMhf1R5BNUE6P-80" value="" style="edgeStyle=orthogonalEdgeStyle;rounded=0;orthogonalLoop=1;jettySize=auto;html=1;" edge="1" parent="1" source="o9NAU-YGMhf1R5BNUE6P-79" target="o9NAU-YGMhf1R5BNUE6P-29">
          <mxGeometry relative="1" as="geometry" />
        </mxCell>
        <mxCell id="o9NAU-YGMhf1R5BNUE6P-81" value="" style="edgeStyle=orthogonalEdgeStyle;rounded=0;orthogonalLoop=1;jettySize=auto;html=1;" edge="1" parent="1" source="o9NAU-YGMhf1R5BNUE6P-79" target="o9NAU-YGMhf1R5BNUE6P-21">
          <mxGeometry relative="1" as="geometry" />
        </mxCell>
        <mxCell id="o9NAU-YGMhf1R5BNUE6P-79" value="" style="shape=providedRequiredInterface;html=1;verticalLabelPosition=bottom;sketch=0;fillColor=#dae8fc;strokeColor=#6c8ebf;fontSize=14;fontColor=#000000;" vertex="1" parent="1">
          <mxGeometry x="394" y="125" width="20" height="20" as="geometry" />
        </mxCell>
      </root>
    </mxGraphModel>
  </diagram>
</mxfile>
